# xmcd CD database file
#
# Track frame offsets:
#	150
#	18312
#	39310
#	55247
#	67735
#	85660
#	104746
#	126617
#	148405
#	162981
#	181381
#	197912
#	215758
#	229025
#	241587
#	257375
#	272524
#	285401
#	300538
#	319020
#
# Disc length: 4407 seconds
#
# Revision: 0
# Processed by: cddbd v1.5.2PL0 Copyright (c) Steve Scherf et al.
# Submitted via: CDex 1.51
#
DISCID=1b113514
DTITLE=Oscar Klein and Lino Patruno  - Jazz for Two 
DYEAR=1900
DGENRE=Jazz
TTITLE0=That's A Plenty
TTITLE1=Sweet Lorraine
TTITLE2=China Boy
TTITLE3=Squeeze Me
TTITLE4=Nobody's Sweethearts
TTITLE5=Big Four Blues
TTITLE6=There'll Be Some Changes Made
TTITLE7=On The Sunny Side Of The Street
TTITLE8=Chicago
TTITLE9=If I Could Be With You
TTITLE10=Jumpin' For Jane
TTITLE11=Sugar
TTITLE12=Irish Black Bottom
TTITLE13=Duo Blues
TTITLE14=Who's Sorry Now
TTITLE15=Of All The Wrongs You've Done To Me
TTITLE16=Please, Don't Talk About Me When You're Gone
TTITLE17=Nobody Knows You When You're Down And Out
TTITLE18=Struttin' With Some Barbecue
TTITLE19=Squeakin' The Boogie
EXTD=
EXTT0=
EXTT1=
EXTT2=
EXTT3=
EXTT4=
EXTT5=
EXTT6=
EXTT7=
EXTT8=
EXTT9=
EXTT10=
EXTT11=
EXTT12=
EXTT13=
EXTT14=
EXTT15=
EXTT16=
EXTT17=
EXTT18=
EXTT19=
PLAYORDER=
